<svg width="132" height="132" viewBox="0 0 132 132" fill="none" xmlns="http://www.w3.org/2000/svg">
<g filter="url(#filter0_d_1213_271)">
<circle cx="66" cy="66" r="55" fill="white"/>
</g>
<g clip-path="url(#clip0_1213_271)">
<path d="M30 65.597C30.1984 64.4872 30.2842 63.3406 30.6174 62.2725C31.3229 60.0039 32.1314 57.7647 32.9496 55.5329C33.7826 53.2545 34.6768 51.0007 35.5465 48.7345C35.6273 48.5239 35.718 48.3181 35.8233 48.0657C36.5926 48.3597 37.3202 48.6366 38.1091 48.9379C38.0184 49.2074 37.9498 49.4426 37.8641 49.6704C36.4358 53.453 34.9536 57.2135 33.5915 61.0182C31.955 65.5896 32.1975 70.1464 33.9884 74.637C34.0986 74.9138 34.2064 75.1931 34.3387 75.5336C33.5817 75.8497 32.8467 76.1583 32.0579 76.4891C31.22 74.5439 30.5782 72.606 30.2817 70.5628C30.1886 69.9283 30.0931 69.2914 30 68.6544C30 67.6353 30 66.6161 30 65.597Z" fill="black"/>
<path d="M101.151 94.7847H98.6942V83.5276H101.151V94.7847Z" fill="black"/>
<path d="M101.151 99.7873H98.6501C98.6501 99.3439 98.6501 98.9397 98.6501 98.533C98.6501 98.1263 98.6501 97.7588 98.6501 97.2836H101.151V99.7849V99.7873Z" fill="black"/>
<path d="M57.3968 81.5407V84.7059C58.4723 85.1445 58.6291 85.3772 58.6291 86.5286C58.6291 89.5395 58.6291 92.5504 58.6291 95.5613C58.6291 96.6833 58.4552 96.9357 57.3748 97.3472V101.002H54.898V97.3252H42.4036V100.99H39.8925V97.3276C38.7558 97.1243 38.5941 96.3354 38.6039 95.3628C38.6358 92.4696 38.6162 89.5738 38.6162 86.6781C38.6162 85.2253 38.8489 84.946 40.3115 84.7084C39.9464 83.824 39.5838 82.9543 39.2262 82.0797C38.234 79.6641 37.1879 77.2681 36.2643 74.8256C34.2897 69.5952 34.444 64.3623 36.4211 59.1612C38.7705 52.9826 41.1297 46.8065 43.4889 40.6304C44.5448 37.8621 46.7252 36.767 49.5744 37.5191C49.8145 37.5828 50.1869 37.4431 50.3927 37.2716C52.377 35.6131 54.528 34.2363 56.9044 33.2098C62.2696 30.8873 67.7965 30.3973 73.4753 31.7325C77.4833 32.6757 81.0674 34.491 84.2008 37.1663C84.6295 37.5313 84.9823 37.6244 85.5458 37.4529C87.6772 36.7988 90.0143 37.7788 90.8889 39.8269C92.06 42.5658 93.0767 45.3733 94.1374 48.1588C95.6686 52.1766 97.2439 56.1797 98.682 60.2293C100.544 65.4745 100.238 70.6878 98.1332 75.8129C96.9229 78.7626 95.6931 81.7024 94.4437 84.7157C94.6372 84.7427 94.7818 84.7623 94.9263 84.7819C95.7078 84.897 96.1341 85.3282 96.1365 86.1342C96.1512 89.3999 96.1463 92.6655 96.139 95.9312C96.139 96.7274 95.6613 97.1463 94.8969 97.3203V100.985H92.425V97.3423H79.9086V100.998H77.4294V97.3276C76.3049 97.1243 76.1162 96.3722 76.126 95.4143C76.1554 92.4745 76.1554 89.5322 76.126 86.5899C76.1162 85.6491 76.3416 84.9411 77.3706 84.7427V81.5481C70.7192 84.1474 64.085 84.1645 57.3944 81.5407H57.3968ZM48.8321 51.5887C52.3182 51.988 53.6265 53.4628 53.6265 56.8804C53.6265 59.5899 53.6485 62.2995 53.6167 65.009C53.602 66.3564 53.8421 67.6206 54.4251 68.8382C55.8338 71.7804 56.7672 74.8673 57.1224 78.1182C57.169 78.5372 57.3258 78.7993 57.7618 78.983C64.1927 81.7146 70.6114 81.7122 77.0349 78.9659C77.4294 78.7969 77.5984 78.5641 77.6425 78.155C77.9977 74.8575 78.9556 71.7314 80.3839 68.7451C80.9351 67.5936 81.1605 66.3932 81.1483 65.1168C81.1213 62.1525 81.1336 59.1881 81.1434 56.2238C81.1483 54.3129 81.9665 52.8577 83.7182 52.0541C84.3674 51.7577 85.1219 51.6965 85.8814 51.5152C85.8153 51.3388 85.7442 51.1256 85.6585 50.9198C84.6834 48.6194 83.6961 46.3263 82.7407 44.021C82.5128 43.4723 82.2507 42.872 82.2679 42.3037C82.2948 41.2943 82.5251 40.2899 82.6868 39.1727C73.0539 30.7085 59.0946 32.4944 51.8944 39.4177C52.6196 40.6647 52.7886 41.9803 52.2962 43.3473C52.0463 44.0431 51.7401 44.7192 51.4534 45.4003C50.5911 47.441 49.7263 49.4793 48.8321 51.5911V51.5887ZM79.9454 84.7378C80.0458 84.75 80.134 84.7721 80.2198 84.7721C83.9019 84.7721 87.5841 84.7647 91.2662 84.7868C91.6974 84.7868 91.8125 84.5614 91.9399 84.2478C93.2653 81.0434 94.6152 77.8488 95.9161 74.6345C97.6824 70.2689 98.0156 65.7881 96.4109 61.3416C93.9856 54.624 91.3814 47.9702 88.8433 41.2943C88.3435 39.9763 87.1382 39.4275 85.9574 39.9273C84.8059 40.4124 84.4188 41.5736 84.9799 42.9039C86.3567 46.1622 87.7286 49.423 89.1226 52.6739C89.6517 53.9062 89.9041 55.1777 89.8992 56.5178C89.8869 61.0794 89.8943 65.6435 89.8943 70.2052V70.9769H87.393C87.393 70.6854 87.393 70.4355 87.393 70.1831C87.393 65.5749 87.3881 60.9643 87.3979 56.3561C87.3979 55.6187 87.2313 54.967 86.6139 54.5236C86.0284 54.1022 85.3669 54.0263 84.7079 54.3448C83.9656 54.7049 83.6422 55.337 83.6422 56.1479C83.6422 59.1808 83.6275 62.2162 83.6471 65.2491C83.6569 66.8048 83.3874 68.2869 82.6917 69.6834C80.3423 74.4116 79.6147 79.4412 79.9429 84.7378H79.9454ZM54.8784 84.7745C54.8784 83.8534 54.8686 83.0425 54.8784 82.2316C54.9347 77.9492 54.0822 73.8604 52.2129 70.0018C51.4387 68.4045 51.0909 66.7435 51.1129 64.9698C51.1521 62.0741 51.1301 59.1783 51.1203 56.2826C51.1154 54.9303 50.2212 54.0606 49.006 54.1953C47.9991 54.3056 47.3769 55.1091 47.3744 56.3365C47.3695 60.9692 47.3744 65.6019 47.3744 70.2346C47.3744 70.4796 47.3744 70.7246 47.3744 70.9597H44.8731C44.8731 70.6511 44.8731 70.3963 44.8731 70.1439C44.8731 65.7195 44.8903 61.295 44.8633 56.8706C44.8535 55.2904 45.1475 53.8082 45.7796 52.3555C47.1686 49.178 48.4965 45.9736 49.8537 42.7814C50.1869 41.9974 50.1869 41.2429 49.6405 40.5569C49.1408 39.9273 48.4622 39.6578 47.6709 39.773C46.7252 39.9126 46.1936 40.5373 45.8653 41.4021C43.4865 47.6713 41.093 53.9332 38.7117 60.2024C36.9747 64.7787 36.8547 69.3894 38.6186 73.9682C39.966 77.4617 41.4678 80.8964 42.874 84.3679C43.0406 84.7745 43.2954 84.777 43.631 84.7745C47.1735 84.7696 50.7185 84.7721 54.261 84.7721C54.4398 84.7721 54.6187 84.7721 54.8735 84.7721L54.8784 84.7745ZM56.0788 94.7504V87.3322H41.1567V94.7504H56.0788ZM93.6156 87.3273H78.696V94.743H93.6156V87.3273Z" fill="black"/>
<path d="M37.2246 44.3101C38.0062 44.6066 38.7313 44.8834 39.5471 45.1921C39.307 45.8339 39.0792 46.444 38.8244 47.1226C38.0429 46.8261 37.3006 46.5419 36.4897 46.2357C36.7396 45.5816 36.9723 44.9691 37.2246 44.3101Z" fill="black"/>
<path d="M56.0788 94.7504H41.1567V87.3322H56.0788V94.7504Z" fill="#22B573"/>
<path d="M93.6157 87.3273V94.743H78.696V87.3273H93.6157Z" fill="#22B573"/>
<path d="M67.113 67.4295V70.901C66.329 70.9696 65.5598 71.0357 64.6607 71.1141C64.6313 70.2787 64.5161 69.4751 64.597 68.6936C64.7195 67.5153 64.4353 66.8587 63.2079 66.3393C60.6674 65.2614 59.5307 62.9904 59.0603 60.3959C58.0559 54.8495 60.7825 50.3662 65.2266 47.8257C69.1586 45.5792 73.3504 45.611 77.596 46.8286C78.5735 47.1079 78.9214 47.9261 78.3799 48.7713C77.2579 50.523 77.0252 52.4633 76.9296 54.4722C76.8341 56.4786 76.8169 58.5169 76.4225 60.4719C75.5185 64.9674 72.2553 67.6549 67.5417 67.4271C67.429 67.4222 67.3139 67.4271 67.113 67.4271V67.4295ZM75.516 48.8179C74.8227 48.7223 74.2323 48.6096 73.637 48.5606C70.3762 48.2887 67.3825 48.9526 64.8273 51.1183C61.7037 53.7666 60.5964 57.4365 61.8507 61.1554C62.3358 62.5959 63.1663 63.7694 64.7611 64.3231C65.1997 60.3861 66.138 56.6428 67.75 53.0194C68.5192 53.3599 69.2468 53.6809 70.0136 54.0214C68.5217 57.5345 67.5638 61.104 67.2404 64.8743C68.6711 65.0041 69.9965 64.867 71.219 64.1344C73.1397 62.9855 73.9285 61.1432 74.1711 59.0534C74.3499 57.5198 74.3573 55.9617 74.394 54.4134C74.4406 52.5245 74.8007 50.7018 75.5111 48.8179H75.516Z" fill="#22B573"/>
<path d="M76.6797 38.134C76.3171 38.8788 75.9766 39.5819 75.5895 40.3757C71.0328 38.2712 66.3511 37.9307 61.5273 39.4129C61.3068 38.7489 61.1084 38.1634 60.9173 37.5755C60.8683 37.426 60.8438 37.2692 60.7948 37.0463C66.2457 35.351 71.5056 35.7307 76.6822 38.1316L76.6797 38.134Z" fill="black"/>
<path d="M56.8211 41.7231C56.3434 41.0224 55.9024 40.3756 55.4125 39.6554C56.2944 39.1409 57.1396 38.646 58.0657 38.1046C58.4503 38.8935 58.8006 39.6088 59.1632 40.3511C58.3817 40.8093 57.6321 41.2478 56.8211 41.7231Z" fill="black"/>
</g>
<defs>
<filter id="filter0_d_1213_271" x="0" y="0" width="132" height="132" filterUnits="userSpaceOnUse" color-interpolation-filters="sRGB">
<feFlood flood-opacity="0" result="BackgroundImageFix"/>
<feColorMatrix in="SourceAlpha" type="matrix" values="0 0 0 0 0 0 0 0 0 0 0 0 0 0 0 0 0 0 127 0" result="hardAlpha"/>
<feMorphology radius="1" operator="dilate" in="SourceAlpha" result="effect1_dropShadow_1213_271"/>
<feOffset/>
<feGaussianBlur stdDeviation="5"/>
<feComposite in2="hardAlpha" operator="out"/>
<feColorMatrix type="matrix" values="0 0 0 0 0.545098 0 0 0 0 0.823529 0 0 0 0 0.627451 0 0 0 0.4 0"/>
<feBlend mode="normal" in2="BackgroundImageFix" result="effect1_dropShadow_1213_271"/>
<feBlend mode="normal" in="SourceGraphic" in2="effect1_dropShadow_1213_271" result="shape"/>
</filter>
<clipPath id="clip0_1213_271">
<rect width="71.1514" height="70" fill="white" transform="translate(30 31)"/>
</clipPath>
</defs>
</svg>
