<svg width="133" height="132" viewBox="0 0 133 132" fill="none" xmlns="http://www.w3.org/2000/svg">
<g filter="url(#filter0_d_1213_300)">
<ellipse cx="66.5" cy="66" rx="55.5" ry="55" fill="white"/>
</g>
<g clip-path="url(#clip0_1213_300)">
<path d="M31 93.9692V60.6147C31.4073 59.9627 32.0154 59.8093 32.7495 59.8129C38.5004 59.8294 44.2494 59.8221 50.0003 59.8221C50.2669 59.8221 50.5335 59.8221 50.8659 59.8221V59.013C50.8659 56.7138 50.8787 54.4127 50.8568 52.1135C50.8513 51.4743 51.054 50.9812 51.5106 50.5374C52.7195 49.3613 53.9212 48.1761 55.0827 46.9543C55.3292 46.6932 55.5027 46.2585 55.5137 45.8988C55.5612 44.3976 55.5082 42.8928 55.5447 41.3898C55.5594 40.7579 55.4169 40.2849 54.9238 39.8393C54.1641 39.1508 54.197 38.5372 54.9384 37.7902C56.2387 36.479 57.5463 35.1751 58.863 33.8803C59.1863 33.5607 59.5534 33.2904 59.9003 33C73.6428 33 87.3853 33 101.128 33V47.3543C100.752 47.9898 100.193 48.1816 99.4641 48.1798C92.6888 48.1615 85.9116 48.1688 79.1362 48.1688H78.4148L78.3162 48.3386C79.0997 49.0892 79.9306 49.796 80.6428 50.6068C80.9697 50.9812 81.2071 51.5492 81.2364 52.0459C81.3167 53.4083 81.2638 54.7762 81.2638 56.144C81.2638 57.3457 81.2638 58.5455 81.2638 59.8202H82.1312C87.8803 59.8202 93.6311 59.8276 99.3801 59.8111C100.114 59.8093 100.722 59.9627 101.13 60.6128V93.9674C100.889 94.2669 100.673 94.592 100.403 94.8622C97.9246 97.3478 95.4318 99.8187 92.9572 102.312C92.4934 102.779 91.993 102.998 91.3227 102.998C74.4829 102.987 57.6449 102.987 40.8051 102.998C40.1367 102.998 39.6363 102.779 39.1706 102.312C36.7308 99.8516 34.269 97.4135 31.8236 94.959C31.5223 94.6559 31.2739 94.2998 31 93.9674L31 93.9692ZM33.3723 62.1925C33.3577 62.3825 33.3358 62.5359 33.3339 62.6893C33.3339 72.6916 33.3285 82.6921 33.3486 92.6945C33.3486 92.9867 33.5312 93.3465 33.743 93.562C35.9528 95.8009 38.179 98.0271 40.4271 100.228C40.6681 100.463 41.0864 100.644 41.4224 100.644C57.8586 100.664 74.293 100.664 90.7292 100.644C91.047 100.644 91.4414 100.48 91.6697 100.257C93.9178 98.0545 96.1477 95.832 98.3501 93.5857C98.5985 93.3319 98.7756 92.8863 98.7775 92.5301C98.7994 82.6648 98.7957 72.7994 98.7957 62.9358C98.7957 62.6948 98.7957 62.4537 98.7957 62.1907H33.3723V62.1925ZM98.7738 35.3759H81.3039V45.7892H98.7738V35.3759ZM78.875 45.8221V35.3285H78.0021C72.5964 35.3285 67.1925 35.3431 61.7869 35.312C61.0217 35.3065 60.4665 35.4892 59.9423 36.0644C59.0767 37.0141 58.1216 37.8834 57.2596 38.7308C58.7115 40.1753 60.0775 41.5359 61.4326 42.8836C61.9823 42.3431 62.5794 41.7587 63.2972 41.0556C62.7621 40.5734 62.1685 40.1589 61.7467 39.611C61.5166 39.3115 61.4344 38.7362 61.5549 38.3765C61.6554 38.0751 62.1448 37.7373 62.4717 37.7245C62.8406 37.7117 63.2972 37.9674 63.5857 38.2432C64.8403 39.4357 66.0347 40.6921 67.2875 41.8865C67.534 42.1221 67.9431 42.2992 68.281 42.3047C70.5382 42.3412 72.7955 42.3175 75.0545 42.3266C76.1558 42.3303 76.5794 42.7649 76.5904 43.8643C76.5977 44.5127 76.5904 45.161 76.5904 45.8239H78.8696L78.875 45.8221ZM57.9097 52.8531V59.7764H74.209V52.8531H57.9097ZM55.4827 59.7892V49.7741C54.754 50.5411 54.1385 51.1456 53.5815 51.7994C53.3825 52.0313 53.2199 52.3801 53.2163 52.6796C53.1834 54.6374 53.1998 56.5951 53.1998 58.5528C53.1998 58.9546 53.1998 59.3582 53.1998 59.7892H55.4845H55.4827ZM78.9298 59.7892C78.9298 57.2799 78.9298 54.8474 78.9262 52.4148C78.9262 52.3071 78.9097 52.1665 78.8422 52.0989C78.1409 51.3775 77.4286 50.6671 76.6361 49.8727V59.791H78.928L78.9298 59.7892ZM60.209 50.4607C60.209 48.7422 60.209 47.0639 60.2053 45.3874C60.2053 45.2797 60.1889 45.1391 60.1213 45.0697C59.4219 44.3501 58.7096 43.6415 57.9097 42.838V50.4607H60.209ZM62.5521 50.448H64.833V42.796C64.0331 43.6288 63.372 44.3081 62.7274 45.0039C62.6306 45.108 62.5612 45.2833 62.5612 45.4258C62.5502 47.0804 62.5539 48.7368 62.5539 50.448H62.5521ZM67.24 50.4644H69.5338V44.6588C68.8617 44.6588 68.2299 44.6387 67.6016 44.6752C67.4738 44.6825 67.2565 44.9071 67.2546 45.0331C67.2309 46.8247 67.2382 48.6181 67.2382 50.4626L67.24 50.4644ZM71.9645 44.7026V50.4425H74.2181V44.7026H71.9645Z" fill="black"/>
<path d="M98.7738 35.376V45.7892H81.304V35.376H98.7738Z" fill="#22B573"/>
<path d="M78.875 45.8221H76.5959C76.5959 45.1592 76.6014 44.5109 76.5959 43.8625C76.5831 42.7631 76.1594 42.3303 75.06 42.3248C72.8028 42.3157 70.5437 42.3395 68.2865 42.3029C67.9486 42.2975 67.5395 42.1185 67.293 41.8847C66.0402 40.6904 64.8476 39.4339 63.5912 38.2414C63.3026 37.9674 62.8461 37.7099 62.4772 37.7227C62.1503 37.7337 61.6608 38.0733 61.5604 38.3747C61.4399 38.7344 61.5202 39.3079 61.7522 39.6092C62.1722 40.1571 62.7676 40.5716 63.3026 41.0538C62.5849 41.7569 61.9896 42.3431 61.438 42.8818C60.083 41.5341 58.7169 40.1754 57.2651 38.729C58.1271 37.8816 59.0822 37.0123 59.9478 36.0626C60.472 35.4874 61.0253 35.3066 61.7923 35.3102C67.1962 35.3431 72.6019 35.3267 78.0076 35.3267H78.8805V45.8203L78.875 45.8221Z" fill="#22B573"/>
<path d="M60.2071 50.4589H57.9079V42.8362C58.7078 43.6397 59.42 44.3483 60.1195 45.0679C60.1871 45.1373 60.2035 45.2779 60.2035 45.3856C60.209 47.0621 60.2071 48.7404 60.2071 50.4589Z" fill="#22B573"/>
<path d="M62.5521 50.448C62.5521 48.7368 62.5484 47.0804 62.5594 45.4258C62.5594 45.2834 62.6288 45.108 62.7256 45.004C63.3702 44.31 64.0313 43.6306 64.8312 42.796V50.448H62.5502H62.5521Z" fill="#22B573"/>
<path d="M67.24 50.4625C67.24 48.618 67.2327 46.8265 67.2564 45.0331C67.2564 44.9071 67.4756 44.6824 67.6034 44.6751C68.2317 44.6368 68.8635 44.6587 69.5356 44.6587V50.4643H67.2418L67.24 50.4625Z" fill="#22B573"/>
<path d="M71.9645 44.7008H74.2181V50.4407H71.9645V44.7008Z" fill="#22B573"/>
<path d="M77.268 73.5628C77.5766 73.3491 77.8213 73.1866 78.0569 73.0131C78.5116 72.6752 78.9883 72.5255 79.5142 72.8414C80.042 73.161 80.1224 73.6596 80.0366 74.2129C79.927 74.9105 79.843 75.6136 79.6804 76.2985C79.5435 76.8774 79.6695 77.334 79.9964 77.8252C81.4702 80.0441 82.9092 82.2867 84.3593 84.5239C84.8907 85.3439 84.8816 85.7 84.3063 86.5054C82.5312 88.9891 80.7433 91.4636 78.9865 93.9601C78.5482 94.5829 78.0222 94.8404 77.2607 94.8294C74.9797 94.7984 72.6969 94.8184 70.4141 94.8184C70.1675 94.8184 69.921 94.8184 69.5722 94.8184C69.5722 95.2403 69.6598 95.6256 69.5502 95.9434C69.4115 96.3415 69.1868 96.7926 68.8581 97.0209C68.4399 97.3113 67.9358 97.1359 67.5469 96.7798C67.4464 96.6867 67.3314 96.6027 67.2565 96.4913C66.2539 95.0175 64.8605 94.6943 63.1346 94.7801C60.3807 94.9171 57.6139 94.7983 54.8526 94.8276C54.0856 94.8367 53.5706 94.5609 53.136 93.9418C51.3919 91.4636 49.6168 89.0092 47.8545 86.5437C47.2335 85.6744 47.2317 85.3731 47.8271 84.4508C49.4342 81.9653 51.0431 79.4798 52.694 76.9267C52.3288 76.6546 51.9781 76.3807 51.6129 76.1286C51.1326 75.7963 50.7764 75.3945 50.9098 74.7681C51.0486 74.1106 51.5563 73.8805 52.1607 73.7856C52.7232 73.6979 53.2839 73.5299 53.8464 73.5189C54.7504 73.5007 55.2489 73.0441 55.7073 72.3081C57.1628 69.9687 58.706 67.6841 60.1834 65.3574C60.5834 64.7274 61.0874 64.4735 61.8234 64.479C64.6523 64.5009 67.4829 64.5028 70.3136 64.479C71.0843 64.4717 71.5774 64.7657 71.9883 65.4159C73.5716 67.9178 75.197 70.3924 76.8078 72.8761C76.9429 73.0843 77.0853 73.2888 77.2716 73.5646L77.268 73.5628ZM69.563 87.8221C70.6204 87.8221 71.5975 87.6943 72.527 87.8495C74.3076 88.149 75.3906 87.4258 76.1156 85.8753C76.2763 85.532 76.2909 85.3329 76.0937 85.0298C75.4362 84.018 74.7861 83.0008 74.178 81.958C73.9113 81.4996 73.5899 81.2787 73.0566 81.2257C72.2641 81.1472 71.4806 80.9755 70.6953 80.8385C70.1602 80.7454 69.7475 80.4897 69.6251 79.9272C69.5064 79.3775 69.7183 78.9502 70.1748 78.6324C70.6003 78.3347 71.0204 78.0279 71.4167 77.7449C71.4039 77.6335 71.413 77.5823 71.3911 77.5476C70.6003 76.2693 69.8151 74.9872 69.0097 73.7198C68.5367 72.9765 68.1824 71.9703 67.4957 71.6069C66.7981 71.238 65.7571 71.4808 64.8696 71.5247C64.6103 71.5375 64.2687 71.7256 64.1281 71.9411C63.3191 73.1793 62.6196 74.4941 61.7631 75.6958C61.0126 76.7496 60.682 77.7923 61.1057 79.0525C61.2554 79.4999 61.2609 79.993 61.3486 80.4623C61.449 81.0047 61.3267 81.4704 60.8555 81.7809C60.3825 82.0932 59.9058 82.0219 59.4511 81.7078C59.1425 81.4941 58.8284 81.2841 58.4923 81.054C57.9572 81.9197 57.4623 82.7086 56.9802 83.5085C56.5839 84.1678 55.8881 84.8471 55.9082 85.4991C55.9283 86.1584 56.6387 86.8158 57.1007 87.4349C57.2468 87.6303 57.5609 87.8057 57.8002 87.8075C60.2419 87.8349 62.6854 87.833 65.1271 87.8093C65.3864 87.8075 65.6969 87.6723 65.8941 87.497C66.4712 86.9802 66.957 86.3538 67.5706 85.8917C67.8829 85.6562 68.4582 85.5082 68.7924 85.6379C69.1284 85.7676 69.3932 86.2588 69.5411 86.6478C69.6616 86.9656 69.5649 87.3655 69.5649 87.8257L69.563 87.8221ZM55.0736 75.6721C55.6416 76.4154 55.4188 77.0436 54.9823 77.7047C53.3898 80.1172 51.8375 82.5552 50.2505 84.9713C50.0131 85.3311 50.0112 85.5758 50.2669 85.9283C51.7425 87.9518 53.198 89.9898 54.6408 92.0371C54.8782 92.3749 55.1357 92.4973 55.5429 92.49C56.8195 92.4662 58.0979 92.4808 59.3744 92.4808H63.1913C62.3822 91.6718 62.4261 90.9249 63.2077 90.1506C61.0509 90.1506 59.0658 90.1286 57.0825 90.1615C56.3593 90.1743 55.8826 89.9077 55.5064 89.305C54.891 88.3207 54.2463 87.3546 53.5761 86.4067C53.1323 85.7822 53.1487 85.227 53.556 84.586C54.6791 82.82 55.7767 81.0358 56.856 79.2424C57.2432 78.5977 57.6632 78.0772 58.5983 78.2434C58.4211 77.1824 58.2586 76.209 58.0869 75.1753C57.0606 75.3434 56.1018 75.5004 55.0736 75.6702V75.6721ZM58.1837 72.7428C59.5333 72.6204 59.7196 72.7044 60.2912 73.6614C61.0326 72.4634 61.7869 71.3 62.4809 70.102C62.8662 69.4354 63.3648 69.1305 64.1409 69.1542C65.3718 69.1926 66.6045 69.1907 67.8336 69.1542C68.6024 69.1305 69.1046 69.4135 69.5064 70.0783C70.8505 72.2953 72.2348 74.4905 73.621 76.682C74.0812 77.4088 74.5688 78.1083 73.7853 78.9849C74.8518 79.162 75.7887 79.3154 76.784 79.4816C76.9593 78.4352 77.1255 77.4399 77.3063 76.3606C76.448 76.503 76.0407 76.0118 75.6645 75.4274C73.9296 72.7282 72.1892 70.0326 70.4232 67.3535C70.2643 67.1125 69.9192 66.8513 69.6543 66.8477C67.2601 66.8093 64.8659 66.8203 62.4717 66.8349C62.2727 66.8349 61.9841 66.9189 61.8891 67.065C60.6564 68.9186 59.4511 70.7887 58.1819 72.7428H58.1837ZM76.9374 81.9799C77.5127 82.904 78.0478 83.7916 78.6121 84.659C78.9956 85.2489 78.9846 85.7822 78.581 86.3629C77.8925 87.3527 77.226 88.359 76.5758 89.3744C76.2234 89.9259 75.7686 90.1706 75.102 90.1615C73.0493 90.1341 70.9966 90.1378 68.9458 90.1597C68.2792 90.167 67.6747 90.1012 67.3314 89.5315C66.683 90.1414 66.0585 90.7277 65.4631 91.2883C66.0731 91.9147 66.6721 92.5283 67.3131 93.1876C67.6875 92.5265 68.3048 92.4754 68.9695 92.479C71.5007 92.4918 74.0319 92.4735 76.563 92.4955C77.0032 92.4991 77.2643 92.3603 77.5145 92.0042C78.8093 90.1597 80.1279 88.3334 81.4391 86.4999C81.9346 85.8071 81.9462 85.0973 81.4738 84.3705C80.6703 83.1359 79.8667 81.9032 79.0321 80.6212C78.634 81.8539 78.5445 81.9124 76.9374 81.9836V81.9799Z" fill="#22B573"/>
</g>
<defs>
<filter id="filter0_d_1213_300" x="0" y="0" width="133" height="132" filterUnits="userSpaceOnUse" color-interpolation-filters="sRGB">
<feFlood flood-opacity="0" result="BackgroundImageFix"/>
<feColorMatrix in="SourceAlpha" type="matrix" values="0 0 0 0 0 0 0 0 0 0 0 0 0 0 0 0 0 0 127 0" result="hardAlpha"/>
<feMorphology radius="1" operator="dilate" in="SourceAlpha" result="effect1_dropShadow_1213_300"/>
<feOffset/>
<feGaussianBlur stdDeviation="5"/>
<feComposite in2="hardAlpha" operator="out"/>
<feColorMatrix type="matrix" values="0 0 0 0 0.545098 0 0 0 0 0.823529 0 0 0 0 0.627451 0 0 0 0.4 0"/>
<feBlend mode="normal" in2="BackgroundImageFix" result="effect1_dropShadow_1213_300"/>
<feBlend mode="normal" in="SourceGraphic" in2="effect1_dropShadow_1213_300" result="shape"/>
</filter>
<clipPath id="clip0_1213_300">
<rect width="70.1278" height="70" fill="white" transform="translate(31 33)"/>
</clipPath>
</defs>
</svg>
