<svg width="100" height="100" viewBox="0 0 100 100" fill="none" xmlns="http://www.w3.org/2000/svg">
    <path d="M50.0001 87.5C43.0501 87.5 36.2501 85.65 30.2501 82.125C18.5751 75.25 11.6251 63.75 11.6251 51.25V26.25C11.6251 24.175 13.3001 22.5 15.3751 22.5H28.1251C30.2001 22.5 31.8751 24.175 31.8751 26.25V51.25C31.8751 57.5 34.8751 63.375 39.9251 66.875C45.0001 70.375 51.3751 71.25 57.2501 69.25C63.1251 67.25 68.1251 62.75 70.6251 56.875C73.1251 51 72.8751 44.375 69.8751 38.75C66.8751 33.125 61.8751 29.125 55.7501 27.5C49.6251 25.875 43.2501 27 38.1251 30.5C36.3751 31.75 33.8751 31.375 32.6251 29.625C31.3751 27.875 31.7501 25.375 33.5001 24.125C40.8751 19.125 49.8751 17.5 58.5001 19.75C67.1251 22 74.3751 27.75 78.5001 35.75C82.6251 43.75 83.0001 53 79.7501 61.375C76.5001 69.75 69.6251 76.125 61.2501 78.875C57.5751 80.125 53.7501 87.5 50.0001 87.5Z" fill="white"/>
</svg> 